<svg width="31" height="44" viewBox="0 0 31 44" fill="none" xmlns="http://www.w3.org/2000/svg">
<g filter="url(#filter0_d_68_241)">
<mask id="path-1-inside-1_68_241" fill="white">
<path d="M18.3276 31.4938C19.2694 32.1604 19.9596 33.0803 20.3015 34.1245C20.6433 35.1686 20.6196 36.2846 20.2336 37.3157C19.8477 38.3469 19.1188 39.2415 18.1494 39.874C17.18 40.5066 16.0187 40.8452 14.8284 40.8425C13.6381 40.8398 12.4787 40.4959 11.5127 39.859C10.5467 39.2221 9.82276 38.3241 9.44239 37.2912C9.06202 36.2583 9.04434 35.1423 9.39183 34.0997C9.73931 33.0571 10.4345 32.1404 11.3799 31.478L11.83 32.0168C11.0075 32.5931 10.4026 33.3907 10.1003 34.2977C9.79795 35.2048 9.81333 36.1758 10.1443 37.0745C10.4752 37.9731 11.1051 38.7543 11.9455 39.3085C12.7859 39.8626 13.7947 40.1618 14.8303 40.1642C15.8658 40.1665 16.8762 39.8719 17.7196 39.3216C18.563 38.7713 19.1971 37.9929 19.5329 37.0958C19.8687 36.1986 19.8894 35.2277 19.592 34.3193C19.2945 33.4109 18.694 32.6105 17.8746 32.0305L18.3276 31.4938Z"/>
</mask>
<path d="M18.3276 31.4938C19.2694 32.1604 19.9596 33.0803 20.3015 34.1245C20.6433 35.1686 20.6196 36.2846 20.2336 37.3157C19.8477 38.3469 19.1188 39.2415 18.1494 39.874C17.18 40.5066 16.0187 40.8452 14.8284 40.8425C13.6381 40.8398 12.4787 40.4959 11.5127 39.859C10.5467 39.2221 9.82276 38.3241 9.44239 37.2912C9.06202 36.2583 9.04434 35.1423 9.39183 34.0997C9.73931 33.0571 10.4345 32.1404 11.3799 31.478L11.83 32.0168C11.0075 32.5931 10.4026 33.3907 10.1003 34.2977C9.79795 35.2048 9.81333 36.1758 10.1443 37.0745C10.4752 37.9731 11.1051 38.7543 11.9455 39.3085C12.7859 39.8626 13.7947 40.1618 14.8303 40.1642C15.8658 40.1665 16.8762 39.8719 17.7196 39.3216C18.563 38.7713 19.1971 37.9929 19.5329 37.0958C19.8687 36.1986 19.8894 35.2277 19.592 34.3193C19.2945 33.4109 18.694 32.6105 17.8746 32.0305L18.3276 31.4938Z" fill="black"/>
<path d="M18.3276 31.4938C19.2694 32.1604 19.9596 33.0803 20.3015 34.1245C20.6433 35.1686 20.6196 36.2846 20.2336 37.3157C19.8477 38.3469 19.1188 39.2415 18.1494 39.874C17.18 40.5066 16.0187 40.8452 14.8284 40.8425C13.6381 40.8398 12.4787 40.4959 11.5127 39.859C10.5467 39.2221 9.82276 38.3241 9.44239 37.2912C9.06202 36.2583 9.04434 35.1423 9.39183 34.0997C9.73931 33.0571 10.4345 32.1404 11.3799 31.478L11.83 32.0168C11.0075 32.5931 10.4026 33.3907 10.1003 34.2977C9.79795 35.2048 9.81333 36.1758 10.1443 37.0745C10.4752 37.9731 11.1051 38.7543 11.9455 39.3085C12.7859 39.8626 13.7947 40.1618 14.8303 40.1642C15.8658 40.1665 16.8762 39.8719 17.7196 39.3216C18.563 38.7713 19.1971 37.9929 19.5329 37.0958C19.8687 36.1986 19.8894 35.2277 19.592 34.3193C19.2945 33.4109 18.694 32.6105 17.8746 32.0305L18.3276 31.4938Z" stroke="#8A9F7A" stroke-width="2" mask="url(#path-1-inside-1_68_241)"/>
</g>
<g filter="url(#filter1_d_68_241)">
<path d="M14 0.5C21.5643 0.5 27.4997 5.40017 27.5 11.2275C27.5 12.6061 27.0362 14.3946 26.2236 16.4609C25.4149 18.5175 24.2783 20.8078 22.9688 23.1758C20.3496 27.9117 17.063 32.9206 14.3965 36.9443C14.2008 37.2397 13.776 37.242 13.5781 36.9531C10.916 33.0654 7.6356 28.0507 5.02246 23.2793C3.71579 20.8934 2.58041 18.5771 1.77344 16.499C0.96251 14.4108 0.5 12.605 0.5 11.2275C0.500286 5.40017 6.43572 0.5 14 0.5Z" fill="#D9D9D9" stroke="black"/>
<path d="M13.6216 4.56C18.143 4.56 21.7027 7.99417 21.7027 12.1039C21.7026 16.2137 18.143 19.6479 13.6216 19.6479C9.10028 19.6479 5.54062 16.2137 5.54056 12.1039C5.54056 7.99418 9.10024 4.56001 13.6216 4.56Z" fill="#00B3FE" stroke="black" stroke-width="2"/>
</g>
<g filter="url(#filter2_d_68_241)">
<mask id="path-4-inside-2_68_241" fill="white">
<path d="M18.3276 31.4938C19.2694 32.1604 19.9596 33.0803 20.3015 34.1245C20.6433 35.1686 20.6196 36.2846 20.2336 37.3157C19.8477 38.3469 19.1188 39.2415 18.1494 39.874C17.18 40.5066 16.0187 40.8452 14.8284 40.8425C13.6381 40.8398 12.4787 40.4959 11.5127 39.859C10.5467 39.2221 9.82276 38.3241 9.44239 37.2912C9.06202 36.2583 9.04434 35.1423 9.39183 34.0997C9.73931 33.0571 10.4345 32.1404 11.3799 31.478L11.83 32.0168C11.0075 32.5931 10.4026 33.3907 10.1003 34.2977C9.79795 35.2048 9.81333 36.1758 10.1443 37.0745C10.4752 37.9731 11.1051 38.7543 11.9455 39.3085C12.7859 39.8626 13.7947 40.1618 14.8303 40.1642C15.8658 40.1665 16.8762 39.8719 17.7196 39.3216C18.563 38.7713 19.1971 37.9929 19.5329 37.0958C19.8687 36.1986 19.8894 35.2277 19.592 34.3193C19.2945 33.4109 18.694 32.6105 17.8746 32.0305L18.3276 31.4938Z"/>
</mask>
<path d="M18.3276 31.4938C19.2694 32.1604 19.9596 33.0803 20.3015 34.1245C20.6433 35.1686 20.6196 36.2846 20.2336 37.3157C19.8477 38.3469 19.1188 39.2415 18.1494 39.874C17.18 40.5066 16.0187 40.8452 14.8284 40.8425C13.6381 40.8398 12.4787 40.4959 11.5127 39.859C10.5467 39.2221 9.82276 38.3241 9.44239 37.2912C9.06202 36.2583 9.04434 35.1423 9.39183 34.0997C9.73931 33.0571 10.4345 32.1404 11.3799 31.478L11.83 32.0168C11.0075 32.5931 10.4026 33.3907 10.1003 34.2977C9.79795 35.2048 9.81333 36.1758 10.1443 37.0745C10.4752 37.9731 11.1051 38.7543 11.9455 39.3085C12.7859 39.8626 13.7947 40.1618 14.8303 40.1642C15.8658 40.1665 16.8762 39.8719 17.7196 39.3216C18.563 38.7713 19.1971 37.9929 19.5329 37.0958C19.8687 36.1986 19.8894 35.2277 19.592 34.3193C19.2945 33.4109 18.694 32.6105 17.8746 32.0305L18.3276 31.4938Z" fill="black"/>
<path d="M18.3276 31.4938C19.2694 32.1604 19.9596 33.0803 20.3015 34.1245C20.6433 35.1686 20.6196 36.2846 20.2336 37.3157C19.8477 38.3469 19.1188 39.2415 18.1494 39.874C17.18 40.5066 16.0187 40.8452 14.8284 40.8425C13.6381 40.8398 12.4787 40.4959 11.5127 39.859C10.5467 39.2221 9.82276 38.3241 9.44239 37.2912C9.06202 36.2583 9.04434 35.1423 9.39183 34.0997C9.73931 33.0571 10.4345 32.1404 11.3799 31.478L11.83 32.0168C11.0075 32.5931 10.4026 33.3907 10.1003 34.2977C9.79795 35.2048 9.81333 36.1758 10.1443 37.0745C10.4752 37.9731 11.1051 38.7543 11.9455 39.3085C12.7859 39.8626 13.7947 40.1618 14.8303 40.1642C15.8658 40.1665 16.8762 39.8719 17.7196 39.3216C18.563 38.7713 19.1971 37.9929 19.5329 37.0958C19.8687 36.1986 19.8894 35.2277 19.592 34.3193C19.2945 33.4109 18.694 32.6105 17.8746 32.0305L18.3276 31.4938Z" stroke="#8A9F7A" stroke-width="2" mask="url(#path-4-inside-2_68_241)"/>
</g>
<g filter="url(#filter3_d_68_241)">
<path d="M14 0.5C21.5643 0.5 27.4997 5.40017 27.5 11.2275C27.5 12.6061 27.0362 14.3946 26.2236 16.4609C25.4149 18.5175 24.2783 20.8078 22.9688 23.1758C20.3496 27.9117 17.063 32.9206 14.3965 36.9443C14.2008 37.2397 13.776 37.242 13.5781 36.9531C10.916 33.0654 7.6356 28.0507 5.02246 23.2793C3.71579 20.8934 2.58041 18.5771 1.77344 16.499C0.96251 14.4108 0.5 12.605 0.5 11.2275C0.500286 5.40017 6.43572 0.5 14 0.5Z" fill="#D9D9D9" stroke="black"/>
<path d="M13.6216 4.56C18.143 4.56 21.7027 7.99417 21.7027 12.1039C21.7026 16.2137 18.143 19.6479 13.6216 19.6479C9.10028 19.6479 5.54062 16.2137 5.54056 12.1039C5.54056 7.99418 9.10024 4.56001 13.6216 4.56Z" fill="#FF0302" stroke="black" stroke-width="2"/>
</g>
<defs>
<filter id="filter0_d_68_241" x="7.14355" y="30.478" width="15.398" height="13.3645" filterUnits="userSpaceOnUse" color-interpolation-filters="sRGB">
<feFlood flood-opacity="0" result="BackgroundImageFix"/>
<feColorMatrix in="SourceAlpha" type="matrix" values="0 0 0 0 0 0 0 0 0 0 0 0 0 0 0 0 0 0 127 0" result="hardAlpha"/>
<feMorphology radius="2" operator="dilate" in="SourceAlpha" result="effect1_dropShadow_68_241"/>
<feOffset dy="1"/>
<feComposite in2="hardAlpha" operator="out"/>
<feColorMatrix type="matrix" values="0 0 0 0 0 0 0 0 0 0 0 0 0 0 0 0 0 0 0.25 0"/>
<feBlend mode="normal" in2="BackgroundImageFix" result="effect1_dropShadow_68_241"/>
<feBlend mode="normal" in="SourceGraphic" in2="effect1_dropShadow_68_241" result="shape"/>
</filter>
<filter id="filter1_d_68_241" x="0" y="0" width="30.2" height="38.8681" filterUnits="userSpaceOnUse" color-interpolation-filters="sRGB">
<feFlood flood-opacity="0" result="BackgroundImageFix"/>
<feColorMatrix in="SourceAlpha" type="matrix" values="0 0 0 0 0 0 0 0 0 0 0 0 0 0 0 0 0 0 127 0" result="hardAlpha"/>
<feOffset dx="2" dy="1"/>
<feGaussianBlur stdDeviation="0.1"/>
<feComposite in2="hardAlpha" operator="out"/>
<feColorMatrix type="matrix" values="0 0 0 0 0.170192 0 0 0 0 0.13419 0 0 0 0 0.13419 0 0 0 0.25 0"/>
<feBlend mode="normal" in2="BackgroundImageFix" result="effect1_dropShadow_68_241"/>
<feBlend mode="normal" in="SourceGraphic" in2="effect1_dropShadow_68_241" result="shape"/>
</filter>
<filter id="filter2_d_68_241" x="7.14355" y="30.478" width="15.398" height="13.3645" filterUnits="userSpaceOnUse" color-interpolation-filters="sRGB">
<feFlood flood-opacity="0" result="BackgroundImageFix"/>
<feColorMatrix in="SourceAlpha" type="matrix" values="0 0 0 0 0 0 0 0 0 0 0 0 0 0 0 0 0 0 127 0" result="hardAlpha"/>
<feMorphology radius="2" operator="dilate" in="SourceAlpha" result="effect1_dropShadow_68_241"/>
<feOffset dy="1"/>
<feComposite in2="hardAlpha" operator="out"/>
<feColorMatrix type="matrix" values="0 0 0 0 0 0 0 0 0 0 0 0 0 0 0 0 0 0 0.25 0"/>
<feBlend mode="normal" in2="BackgroundImageFix" result="effect1_dropShadow_68_241"/>
<feBlend mode="normal" in="SourceGraphic" in2="effect1_dropShadow_68_241" result="shape"/>
</filter>
<filter id="filter3_d_68_241" x="0" y="0" width="30.2" height="38.8681" filterUnits="userSpaceOnUse" color-interpolation-filters="sRGB">
<feFlood flood-opacity="0" result="BackgroundImageFix"/>
<feColorMatrix in="SourceAlpha" type="matrix" values="0 0 0 0 0 0 0 0 0 0 0 0 0 0 0 0 0 0 127 0" result="hardAlpha"/>
<feOffset dx="2" dy="1"/>
<feGaussianBlur stdDeviation="0.1"/>
<feComposite in2="hardAlpha" operator="out"/>
<feColorMatrix type="matrix" values="0 0 0 0 0.170192 0 0 0 0 0.13419 0 0 0 0 0.13419 0 0 0 0.25 0"/>
<feBlend mode="normal" in2="BackgroundImageFix" result="effect1_dropShadow_68_241"/>
<feBlend mode="normal" in="SourceGraphic" in2="effect1_dropShadow_68_241" result="shape"/>
</filter>
</defs>
</svg>
